<?xml version="1.0" encoding="UTF-8"?>
<svg width="18px" height="18px" viewBox="0 0 18 18" version="1.1" xmlns="http://www.w3.org/2000/svg" xmlns:xlink="http://www.w3.org/1999/xlink">
    <!-- Generator: Sketch 51.2 (57519) - http://www.bohemiancoding.com/sketch -->
    <title>icon/review</title>
    <desc>Created with Sketch.</desc>
    <defs></defs>
    <g id="社区" stroke="none" stroke-width="1" fill="none" fill-rule="evenodd">
        <g id="话题内页" transform="translate(-36.000000, -566.000000)" fill="#202020">
            <g id="form" transform="translate(0.000000, 277.000000)">
                <g id="icon" transform="translate(0.000000, 281.000000)">
                    <g id="icon/review" transform="translate(36.000000, 8.000000)">
                        <path d="M13.6439088,7.13195118 C13.0909182,7.13195118 12.6427229,7.58577591 12.6427229,8.14482908 C12.6427229,8.70474833 13.0909182,9.15814001 13.6439088,9.15814001 C14.1968994,9.15814001 14.6450946,8.70474833 14.6450946,8.14482908 C14.6450946,7.58577591 14.1968994,7.13195118 13.6439088,7.13195118 M4.77830418,7.13195118 C4.22531355,7.13195118 3.77711833,7.58577591 3.77711833,8.14482908 C3.77711833,8.70474833 4.22531355,9.15814001 4.77830418,9.15814001 C5.3312948,9.15814001 5.77949003,8.70474833 5.77949003,8.14482908 C5.77949003,7.58577591 5.3312948,7.13195118 4.77830418,7.13195118 M9.21132301,7.13195118 C8.65833238,7.13195118 8.20970412,7.58577591 8.20970412,8.14482908 C8.20970412,8.70474833 8.65833238,9.15814001 9.21132301,9.15814001 C9.76431363,9.15814001 10.2125089,8.70474833 10.2125089,8.14482908 C10.2125089,7.58577591 9.76431363,7.13195118 9.21132301,7.13195118 M9.17754597,15.0331783 C8.23568645,15.0331783 7.33236738,14.8902754 6.49487023,14.6282869 L5.81673137,15.2003313 C5.82972253,15.2050947 5.8427137,15.2098581 5.85570487,15.2146215 L4.67091054,16.0655429 L4.65878545,14.5035717 L4.65878545,13.8037809 C2.6100786,12.5644237 1.26982332,10.5053239 1.26982332,8.17470876 C1.26982332,4.3864848 4.81034905,1.31580623 9.17754597,1.31580623 C13.5451759,1.31580623 17.0857017,4.3864848 17.0857017,8.17470876 C17.0857017,11.9624997 13.5451759,15.0331783 9.17754597,15.0331783 M9.17754597,0.553657833 C4.39463175,0.553657833 0.51676874,3.96557102 0.51676874,8.17470876 C0.51676874,10.6382668 1.84576501,12.8290104 3.90746303,14.2220965 L3.90573087,17.4391422 L6.73693895,15.4883021 C7.5107794,15.687933 8.33008892,15.7953266 9.17754597,15.7953266 C13.9608932,15.7953266 17.8387562,12.3834135 17.8387562,8.17470876 C17.8387562,3.96557102 13.9608932,0.553657833 9.17754597,0.553657833" id="Fill-1"></path>
                    </g>
                </g>
            </g>
        </g>
    </g>
</svg>