<?xml version="1.0" encoding="UTF-8"?>
<svg width="17px" height="16px" viewBox="0 0 17 16" version="1.1" xmlns="http://www.w3.org/2000/svg" xmlns:xlink="http://www.w3.org/1999/xlink">
    <!-- Generator: Sketch 51.2 (57519) - http://www.bohemiancoding.com/sketch -->
    <title>icon /share</title>
    <desc>Created with Sketch.</desc>
    <defs></defs>
    <g id="社区" stroke="none" stroke-width="1" fill="none" fill-rule="evenodd">
        <g id="话题内页" transform="translate(-289.000000, -566.000000)" fill="#231916">
            <g id="form" transform="translate(0.000000, 277.000000)">
                <g id="icon" transform="translate(0.000000, 281.000000)">
                    <g id="icon-/share" transform="translate(289.000000, 8.000000)">
                        <path d="M1.96947179,16 C0.883651282,16 8.71794872e-05,15.1312857 8.71794872e-05,14.0637143 L8.71794872e-05,10.5387143 C8.71794872e-05,10.3257143 0.175753846,10.153 0.392394872,10.153 C0.609035897,10.153 0.785138462,10.3257143 0.785138462,10.5387143 L0.785138462,14.0637143 C0.785138462,14.7061429 1.31606154,15.2285714 1.96947179,15.2285714 L14.7260103,15.2285714 C15.3794205,15.2285714 15.9112154,14.7061429 15.9112154,14.0637143 L15.9112154,10.5387143 C15.9112154,10.3257143 16.0868821,10.153 16.3035231,10.153 C16.5201641,10.153 16.6962667,10.3257143 16.6962667,10.5387143 L16.6962667,14.0637143 C16.6962667,15.1312857 15.8122667,16 14.7260103,16 L1.96947179,16 Z M3.31901935,9.58504348 L3.28289032,8.52678261 C3.27972903,8.43156522 3.22372903,6.17765217 5.02024516,4.34504348 C6.41708387,2.92069565 8.51934194,2.1646087 11.2678581,2.09895652 L11.2556645,0.97373913 C11.2556645,0.675043478 11.4308903,0.412 11.7126968,0.287217391 C11.9949548,0.162 12.3165032,0.205478261 12.5522452,0.40026087 L16.5332129,3.68678261 C16.7332774,3.85156522 16.8497935,4.09156522 16.8543097,4.34504348 C16.8583742,4.59852174 16.7490839,4.842 16.5544387,5.01286957 L12.5472774,8.53417391 C12.3146968,8.73895652 11.9786968,8.79026087 11.691471,8.66591304 C11.4042452,8.54069565 11.2213419,8.26417391 11.2272129,7.96026087 L11.2506968,6.61026087 C10.1699871,6.41069565 6.38501935,5.89634783 4.00682581,8.75808696 L3.31901935,9.58504348 Z M9.38553548,5.66765217 C10.2928258,5.66765217 11.0343742,5.78634783 11.4439871,5.87026087 C11.8088903,5.94504348 12.069471,6.26156522 12.0631484,6.62330435 L12.0396645,7.97373913 L16.0066323,4.43504348 C16.0359871,4.40895652 16.0414065,4.37852174 16.0414065,4.35721739 C16.0409548,4.33591304 16.0346323,4.30591304 16.0039226,4.28113043 L12.0685677,1.032 L12.0685677,2.11765217 C12.0685677,2.53547826 11.7257935,2.87069565 11.2881806,2.88156522 C8.7699871,2.94156522 6.86327742,3.61156522 5.6199871,4.87373913 C4.7939871,5.71243478 4.41508387,6.67026087 4.2412129,7.39113043 C5.88869677,6.00113043 7.86766452,5.66765217 9.38553548,5.66765217 Z" id="Combined-Shape"></path>
                    </g>
                </g>
            </g>
        </g>
    </g>
</svg>