<?xml version="1.0" encoding="UTF-8"?>
<svg width="17px" height="16px" viewBox="0 0 17 16" version="1.1" xmlns="http://www.w3.org/2000/svg" xmlns:xlink="http://www.w3.org/1999/xlink">
    <!-- Generator: Sketch 51.2 (57519) - http://www.bohemiancoding.com/sketch -->
    <title>icon/zan</title>
    <desc>Created with Sketch.</desc>
    <defs>
        <polygon id="path-1" points="0 0 17 0 17 16 0 16"></polygon>
    </defs>
    <g id="社区" stroke="none" stroke-width="1" fill="none" fill-rule="evenodd">
        <g id="话题内页" transform="translate(-164.000000, -565.000000)">
            <g id="form" transform="translate(0.000000, 277.000000)">
                <g id="icon" transform="translate(0.000000, 281.000000)">
                    <g id="icon/zan" transform="translate(164.000000, 7.000000)">
                        <mask id="mask-2" fill="white">
                            <use xlink:href="#path-1"></use>
                        </mask>
                        <g id="Clip-2"></g>
                        <path d="M14.4428107,14.5237 L14.4339623,14.6054991 C14.4339623,14.9427029 14.1552375,15.2163819 13.8128042,15.2163819 L4.13530254,15.2163819 L4.13530254,5.87997023 C5.96869226,5.84429189 7.55698113,4.55378033 7.92817176,2.78161122 L8.1577879,1.68559011 C8.22769031,1.35186713 8.44580351,1.06948615 8.75682498,0.910238936 C9.07050098,0.750556622 9.42443722,0.73967908 9.7531555,0.879781819 C10.2437996,1.08906572 10.5163305,1.64033954 10.4008588,2.19074315 L9.62750813,5.88345104 L15.5824854,5.88345104 C15.9125309,5.88345104 16.1832921,6.13798552 16.2027586,6.45735014 L14.4428107,14.5237 Z M0.796356539,14.6054991 L0.796356539,6.49389868 C0.796356539,6.15712999 1.07463891,5.88345104 1.41707222,5.88345104 L3.2451529,5.88345104 L3.2451529,15.2163819 L1.41707222,15.2163819 C1.07463891,15.2163819 0.796356539,14.9427029 0.796356539,14.6054991 Z M15.5824854,5.10026803 L10.6048146,5.10026803 L11.1808458,2.34868506 C11.3719714,1.43714706 10.9047755,0.517342126 10.0699284,0.160993857 C9.52486662,-0.071350435 8.91211451,-0.0513357581 8.38961614,0.215381566 C7.86490566,0.483404196 7.49636955,0.962016034 7.37780091,1.52764821 L7.14818478,2.62323422 C6.84778139,4.05863463 5.54839297,5.10026803 4.05832141,5.10026803 L1.41707222,5.10026803 C0.63575797,5.10026803 0,5.72550913 0,6.49389868 L0,14.6054991 C0,15.3743238 0.63575797,16 1.41707222,16 L13.8128042,16 C14.5790761,16 15.2055433,15.3986895 15.229434,14.6507497 L16.9911516,6.5761329 L17,6.49389868 C17,5.72550913 16.364242,5.10026803 15.5824854,5.10026803 Z" id="Fill-1" fill="#202020" mask="url(#mask-2)"></path>
                    </g>
                </g>
            </g>
        </g>
    </g>
</svg>