<?xml version="1.0" encoding="UTF-8"?>
<svg width="80px" height="80px" viewBox="0 0 80 80" version="1.1" xmlns="http://www.w3.org/2000/svg" xmlns:xlink="http://www.w3.org/1999/xlink">
    <!-- Generator: Sketch 51.2 (57519) - http://www.bohemiancoding.com/sketch -->
    <title>btn/add_photo_pic@2x</title>
    <desc>Created with Sketch.</desc>
    <defs>
        <path d="M8,0 L72,0 C76.418278,-8.11624501e-16 80,3.581722 80,8 L80,72 C80,76.418278 76.418278,80 72,80 L8,80 C3.581722,80 5.41083001e-16,76.418278 0,72 L0,8 C-5.41083001e-16,3.581722 3.581722,8.11624501e-16 8,0 Z" id="path-1"></path>
        <mask id="mask-2" maskContentUnits="userSpaceOnUse" maskUnits="objectBoundingBox" x="0" y="0" width="80" height="80" fill="white">
            <use xlink:href="#path-1"></use>
        </mask>
    </defs>
    <g id="Symbols" stroke="none" stroke-width="1" fill="none" fill-rule="evenodd">
        <g id="btn/add_photo_pic">
            <g>
                <use id="Rectangle-2" stroke="#EBEBEB" mask="url(#mask-2)" stroke-width="2" fill="#FFFFFF" fill-rule="nonzero" stroke-dasharray="3" xlink:href="#path-1"></use>
                <path d="M19.996,54.76 L26.632,54.76 L26.632,55.36 L23.344,55.36 C23.212,55.996 23.044,56.572 22.852,57.088 L27.172,57.088 L27.172,57.724 L24.52,57.724 C25.144,58.792 26.14,59.632 27.52,60.232 L27.244,60.808 C25.624,60.016 24.496,58.996 23.848,57.724 L22.588,57.724 C22.468,57.964 22.336,58.204 22.204,58.432 C21.592,59.344 20.692,60.172 19.492,60.904 L19.096,60.376 C20.284,59.716 21.172,58.924 21.748,58.012 L21.916,57.724 L19.432,57.724 L19.432,57.088 L22.204,57.088 C22.42,56.548 22.588,55.972 22.684,55.36 L19.996,55.36 L19.996,54.76 Z M20.812,61.048 L21.364,61.324 C20.908,62.548 20.356,63.604 19.732,64.492 L19.192,64.096 C19.816,63.256 20.356,62.236 20.812,61.048 Z M17.32,54.46 C18.076,54.976 18.712,55.492 19.228,55.996 L18.772,56.452 C18.304,55.948 17.668,55.432 16.876,54.88 L17.32,54.46 Z M17.044,57.328 C17.812,57.904 18.448,58.492 18.976,59.068 L18.52,59.524 C18.052,58.972 17.416,58.372 16.6,57.748 L17.044,57.328 Z M18.304,60.592 L18.88,60.82 C18.376,62.344 17.836,63.772 17.236,65.116 L16.624,64.852 C17.272,63.46 17.824,62.044 18.304,60.592 Z M22.264,65.176 L21.16,65.176 L21.016,64.564 C21.376,64.588 21.724,64.612 22.048,64.612 C22.3,64.612 22.432,64.444 22.432,64.132 L22.432,59.596 L23.068,59.596 L23.068,64.288 C23.068,64.876 22.792,65.176 22.264,65.176 Z M25.852,60.772 C26.44,61.828 26.944,62.968 27.376,64.18 L26.812,64.444 C26.344,63.124 25.828,61.96 25.276,60.952 L25.852,60.772 Z M24.268,61.216 C24.784,62.272 25.24,63.388 25.624,64.588 L25.048,64.852 C24.64,63.556 24.196,62.404 23.704,61.396 L24.268,61.216 Z M38.872,56.092 L38.872,64.984 L38.224,64.984 L38.224,64.156 L35.692,64.156 L35.692,64.984 L35.068,64.984 L35.068,56.092 L38.872,56.092 Z M35.692,63.532 L38.224,63.532 L38.224,56.704 L35.692,56.704 L35.692,63.532 Z M30.7,54.256 L31.348,54.256 L31.348,56.752 L33.832,56.752 C33.832,60.376 33.772,62.62 33.652,63.484 C33.532,64.516 32.956,65.044 31.9,65.044 C31.72,65.044 31.42,65.032 31,65.008 L30.844,64.42 C31.216,64.444 31.54,64.456 31.828,64.456 C32.524,64.456 32.932,64.06 33.04,63.268 C33.124,62.596 33.172,60.64 33.196,57.4 L31.348,57.4 L31.348,57.424 C31.312,60.976 30.52,63.568 28.972,65.212 L28.48,64.768 C29.932,63.244 30.676,60.796 30.7,57.424 L30.7,57.4 L28.696,57.4 L28.696,56.752 L30.7,56.752 L30.7,54.256 Z M44.944,55.744 L45.544,55.816 C45.448,56.08 45.328,56.332 45.184,56.572 L48.4,56.572 L48.4,57.028 C48.052,57.7 47.512,58.288 46.768,58.792 C47.608,59.224 48.58,59.584 49.672,59.848 L49.336,60.352 C48.124,60.016 47.092,59.608 46.24,59.128 C45.304,59.644 44.14,60.064 42.748,60.376 L42.46,59.848 C43.78,59.584 44.86,59.236 45.712,58.804 C45.172,58.444 44.716,58.048 44.344,57.64 C43.972,58.024 43.54,58.372 43.036,58.684 L42.676,58.204 C43.792,57.532 44.548,56.704 44.944,55.744 Z M46.24,58.504 C46.9,58.096 47.392,57.616 47.728,57.076 L44.836,57.076 L44.692,57.268 C45.124,57.724 45.64,58.144 46.24,58.504 Z M43.828,61.732 C45.436,62.044 46.972,62.488 48.448,63.064 L48.232,63.604 C46.744,63.016 45.184,62.56 43.564,62.224 L43.828,61.732 Z M45.088,60.016 C46.012,60.34 46.852,60.736 47.62,61.204 L47.308,61.684 C46.492,61.168 45.652,60.76 44.788,60.46 L45.088,60.016 Z M50.812,54.808 L50.812,65.164 L50.164,65.164 L50.164,64.624 L41.836,64.624 L41.836,65.164 L41.188,65.164 L41.188,54.808 L50.812,54.808 Z M41.836,64.036 L50.164,64.036 L50.164,55.408 L41.836,55.408 L41.836,64.036 Z M55.6,58.144 L55.6,58.936 C55.588,59.416 55.564,59.86 55.528,60.292 L61.168,60.292 L61.168,65.2 L60.508,65.2 L60.508,60.916 L55.444,60.916 C55.168,62.764 54.508,64.168 53.464,65.152 L52.96,64.72 C54.268,63.52 54.94,61.588 54.964,58.936 L54.964,54.544 L55.6,54.544 L55.6,57.52 L59.344,57.52 L59.344,54.22 L59.98,54.22 L59.98,57.52 L62.8,57.52 L62.8,58.144 L55.6,58.144 Z" id="添加图片" fill="#999999"></path>
                <g id="icon/photo_add" transform="translate(25.000000, 15.000000)">
                    <rect id="Rectangle-6" fill-rule="nonzero" x="0" y="0" width="30" height="30"></rect>
                    <path d="M6.89631579,3.57 L8.41763158,1.75105263 C9.14157895,0.885 10.1268421,0 11.9521053,0 L16.0723684,0 C17.8518421,0 18.9721053,1.02157895 19.4805263,1.62947368 L21.0444737,3.49894737 C21.4218421,3.95131579 22.6518421,4.72026316 23.5723684,4.72026316 L26.8421053,4.72026316 C28.5836842,4.72026316 30,6.13973684 30,7.88368421 L30,25.2828947 C30,27.0236842 28.5892105,28.4407895 26.8421053,28.4463158 L3.15789474,28.4463158 C1.41631579,28.4463158 0,27.0276316 0,25.2828947 L0,7.88368421 C0,6.13973684 1.41631579,4.72026316 3.15789474,4.72026316 L4.37710526,4.72026316 C5.30789474,4.72026316 6.56710526,3.96394737 6.89631579,3.57 Z M19.8752632,4.56394737 L18.2702632,2.64473684 C17.8652632,2.16078947 17.1539474,1.58210526 16.0723684,1.58210526 L11.9521053,1.58210526 C10.8413158,1.58210526 10.2389474,2.03526316 9.62789474,2.76631579 L8.10657895,4.58605263 C7.50657895,5.30289474 5.82657895,6.30236842 4.45210526,6.30236842 L3.15789474,6.30236842 C2.28789474,6.30236842 1.57894737,7.01210526 1.57894737,7.88368421 L1.57894737,25.2828947 C1.57894737,26.1544737 2.28789474,26.8642105 3.15789474,26.8642105 L26.8421053,26.8642105 C27.7128947,26.8642105 28.4210526,26.1544737 28.4210526,25.2828947 L28.4210526,7.88368421 C28.4210526,7.01210526 27.7128947,6.30236842 26.8421053,6.30236842 L23.615,6.30236842 C22.1268421,6.30236842 20.4689474,5.27447368 19.8752632,4.56394737 Z M7.69210526,15.7926316 C7.69210526,12.3078947 10.5215789,9.47368421 14,9.47368421 C16.5173638,9.47368421 18.6948386,10.9581144 19.7059054,13.0992588 C19.9494292,13.6149712 19.5164028,14.1957086 19.0121053,14.2138707 C18.7170686,14.2244964 18.336212,13.8836625 18.2149261,13.645642 C17.4320943,12.1093549 15.8366791,11.055 14,11.055 C11.3923684,11.055 9.27105263,13.1802632 9.27105263,15.7926316 C9.27105263,18.4042105 11.3923684,20.5294737 14,20.5294737 C14.8952632,20.5294737 15.7755263,20.2681579 16.5460526,19.7723684 C16.9123684,19.5347368 17.4002632,19.6421053 17.6363158,20.0107895 C17.8715789,20.3786842 17.7657895,20.8673684 17.3986842,21.1034211 C16.3731579,21.7634211 15.1984211,22.1115789 14,22.1115789 C10.5215789,22.1115789 7.69210526,19.2773684 7.69210526,15.7926316 Z" id="Shape" fill="#999999"></path>
                    <polygon id="+" fill="#FB7661" points="24.798 18.896 21.802 18.896 21.802 21.864 20.682 21.864 20.682 18.896 17.686 18.896 17.686 17.762 20.682 17.762 20.682 14.808 21.802 14.808 21.802 17.762 24.798 17.762"></polygon>
                </g>
            </g>
        </g>
    </g>
</svg>