<?xml version="1.0" encoding="UTF-8"?>
<svg width="81px" height="80px" viewBox="0 0 81 80" version="1.1" xmlns="http://www.w3.org/2000/svg" xmlns:xlink="http://www.w3.org/1999/xlink">
    <!-- Generator: Sketch 51.2 (57519) - http://www.bohemiancoding.com/sketch -->
    <title>btn/add_photo@2x</title>
    <desc>Created with Sketch.</desc>
    <defs>
        <path d="M8,0 L72,0 C76.418278,-8.11624501e-16 80,3.581722 80,8 L80,72 C80,76.418278 76.418278,80 72,80 L8,80 C3.581722,80 5.41083001e-16,76.418278 0,72 L0,8 C-5.41083001e-16,3.581722 3.581722,8.11624501e-16 8,0 Z" id="path-1"></path>
        <mask id="mask-2" maskContentUnits="userSpaceOnUse" maskUnits="objectBoundingBox" x="0" y="0" width="80" height="80" fill="white">
            <use xlink:href="#path-1"></use>
        </mask>
    </defs>
    <g id="成长+-计划" stroke="none" stroke-width="1" fill="none" fill-rule="evenodd">
        <g id="成长计划-发布" transform="translate(-105.000000, -249.000000)" fill-rule="nonzero">
            <g id="plant/tool" transform="translate(0.000000, 229.000000)">
                <g id="btn/add_photo" transform="translate(105.000000, 20.000000)">
                    <g transform="translate(0.333333, 0.000000)">
                        <use id="Rectangle-2" stroke="#EBEBEB" mask="url(#mask-2)" stroke-width="2" fill="#FFFFFF" stroke-dasharray="3" xlink:href="#path-1"></use>
                        <g id="icon/add" transform="translate(28.000000, 28.000000)" fill="#D8D8D8">
                            <path d="M11,11 L11,1 C11,0.44771525 11.4477153,1.01453063e-16 12,1.23259516e-32 C12.5522847,-1.01453063e-16 13,0.44771525 13,1 L13,11 L23,11 C23.5522847,11 24,11.4477153 24,12 C24,12.5522847 23.5522847,13 23,13 L13,13 L13,23 C13,23.5522847 12.5522847,24 12,24 C11.4477153,24 11,23.5522847 11,23 L11,13 L1,13 C0.44771525,13 6.76353751e-17,12.5522847 0,12 C-6.76353751e-17,11.4477153 0.44771525,11 1,11 L11,11 Z" id="Combined-Shape"></path>
                        </g>
                    </g>
                </g>
            </g>
        </g>
    </g>
</svg>